<svg role="img" viewBox="0 0 24 24" xmlns="http://www.w3.org/2000/svg"><title>Blue Rewards</title><rect x="1.5" y="1.5" width="21" height="21" rx="5.5" fill="#0075BE"/><path fill="#fff" d="M7.25 7h4.1c1.75 0 2.9 1 2.9 2.45 0 1-.6 1.75-1.55 2.05 1.05.3 1.8 1.2 1.8 2.35 0 1.65-1.35 2.85-3.25 2.85H7.25V7zm1.85 1.85v2.15h1.4c.8 0 1.2-.45 1.2-1.08 0-.62-.4-1.07-1.15-1.07H9.1zm0 3.7v2.45h1.5c.9 0 1.35-.52 1.35-1.22 0-.7-.45-1.23-1.35-1.23H9.1z"/><circle cx="17.25" cy="16.75" r="2.35" fill="#7EC8FF"/></svg>
