<svg xmlns="http://www.w3.org/2000/svg" viewBox="0 0 64 32" role="img" aria-label="British Airways">
  <title>British Airways</title>
  <!-- Classic Speedbird: red upper ribbon -->
  <path
    fill="#E31837"
    d="M2 14.5
       L38 11.2
       C48 10.4 56 11.2 59.5 14.2
       C61.2 15.6 61 17.4 58.8 18.2
       C52.5 20.4 42 21.2 34 21
       L8 18.2
       C4.5 17.7 2.4 16.4 2 14.5
       Z"
  />
  <!-- Classic Speedbird: navy underside fold -->
  <path
    fill="#075AAA"
    d="M34 21
       C42 21.2 52.5 20.4 58.8 18.2
       C61 17.4 61.2 15.6 59.5 14.2
       C61.8 16.2 60.5 19.8 55.5 22.2
       C49 25.2 40.5 26.2 33.5 25.8
       C24 25.2 16 23.4 12 21.8
       C18.5 21.6 27.5 21.2 34 21
       Z"
  />
</svg>
