<svg xmlns="http://www.w3.org/2000/svg" viewBox="0 0 24 24" role="img" aria-label="WestJet">
  <title>WestJet</title>
  <defs>
    <clipPath id="westjet-leaf">
      <!-- Stylized maple leaf -->
      <path d="M12 1.6
        L13.15 5.55
        L16.95 3.55
        L15.35 7.4
        L19.55 8.35
        L15.7 10.45
        L18.2 14
        L14.05 12.7
        L14.85 16.85
        L12 14.35
        L9.15 16.85
        L9.95 12.7
        L5.8 14
        L8.3 10.45
        L4.45 8.35
        L8.65 7.4
        L7.05 3.55
        L10.85 5.55
        Z
        M10.55 15.9
        L11.25 17.15
        L12 20.4
        L12.75 17.15
        L13.45 15.9
        L12.55 16.85
        H11.45
        Z"/>
    </clipPath>
  </defs>
  <g clip-path="url(#westjet-leaf)">
    <!-- Teal upper leaf -->
    <rect width="24" height="24" fill="#36B8B0"/>
    <!-- Navy lower-left lobe -->
    <polygon fill="#00205B" points="-1,13 13,26 -1,26"/>
    <!-- White paper-plane slash -->
    <polygon fill="#FFFFFF" points="-2,10.5 17,-2 21.5 2.5 2.5,18"/>
  </g>
</svg>
